<?xml version="1.0" encoding="utf-8"?>
<!-- Generator: Adobe Illustrator 16.0.0, SVG Export Plug-In . SVG Version: 6.00 Build 0)  -->
<!DOCTYPE svg PUBLIC "-//W3C//DTD SVG 1.1//EN" "http://www.w3.org/Graphics/SVG/1.1/DTD/svg11.dtd">
<svg version="1.1" id="Layer_1" xmlns="http://www.w3.org/2000/svg" xmlns:xlink="http://www.w3.org/1999/xlink" x="0px" y="0px"
	 width="1234.942px" height="1223px" viewBox="0 0 1234.942 1223" enable-background="new 0 0 1234.942 1223" xml:space="preserve">
<ellipse fill="#4BA336" cx="620.309" cy="600.297" rx="575.445" ry="566.259"/>
<path fill="#E6E6E6" d="M765,1039.188c0,2.209-1.791,3.812-4,3.812H522c-2.209,0-4-1.604-4-3.812l-40-584.094
	c0-2.209,1.791-4.094,4-4.094h319c2.209,0,4,1.885,4,4.094L765,1039.188z"/>
<polygon fill="#CC4E46" points="448.202,162.003 730.079,176.75 484.996,321.277 "/>
<line fill="none" stroke="#FFFFFF" stroke-width="20" stroke-miterlimit="10" x1="437.883" y1="149.643" x2="620.571" y2="1015.709"/>
<polygon fill="none" points="608.605,254 495.366,281.889 479.395,212.748 592.633,184.86 "/>
<text transform="matrix(1.1461 -0.2823 0.2251 0.9743 491.1055 263.1357)" fill="#FFEEEE" font-family="'FrancoisOne-Regular'" font-size="69" letter-spacing="2.542">19</text>
<path fill="#FAB141" fill-opacity="0.7" d="M753.396,1015.496c0,2.029-1.623,3.738-3.624,3.738H533.229
	c-2.002,0-3.624-1.709-3.624-3.738l-36.242-536.211c0-2.027,1.623-3.77,3.625-3.77h289.026c2.001,0,3.624,1.742,3.624,3.77
	L753.396,1015.496z"/>
<polygon fill="#FFFFFF" points="786,535 497,535 490,451 792,451 "/>
<polygon fill="#FFFFFF" fill-opacity="0.3" points="598.46,1043.572 530.539,1043.572 492.539,452.209 578.46,451.177 "/>
<circle fill="#FEEBD3" fill-opacity="0.5" cx="676.334" cy="728.375" r="6"/>
<circle fill="#FEEBD3" fill-opacity="0.5" cx="678.334" cy="637.375" r="6"/>
<ellipse fill="#FEEBD3" fill-opacity="0.5" cx="692.333" cy="682.375" rx="9.915" ry="9"/>
<circle fill="#FEEBD3" fill-opacity="0.5" cx="726.334" cy="648.375" r="6"/>
<circle fill="#FEEBD3" fill-opacity="0.5" cx="686.334" cy="841.375" r="6"/>
<circle fill="#FEEBD3" fill-opacity="0.5" cx="708.334" cy="748.375" r="6"/>
<ellipse fill="#FEEBD3" fill-opacity="0.5" cx="653.333" cy="816.375" rx="9.915" ry="9"/>
<circle fill="#FEEBD3" fill-opacity="0.5" cx="701.334" cy="785.375" r="6"/>
<ellipse fill="none" stroke="#4BA336" stroke-width="15" stroke-miterlimit="10" cx="623.568" cy="601.383" rx="592.375" ry="582.919"/>
</svg>
